<svg xmlns="http://www.w3.org/2000/svg" width="102.992" height="50.369" viewBox="0 0 102.992 50.369"><path d="M-158.46 158.434c2.42 0 2.978 1.418 2.978 3.032s-.558 3.032-2.978 3.032h-2.9c-.066 0-.11-.036-.11-.09v-5.885c0-.054.043-.09.11-.09h2.9zm-.256 1.248h-.69c-.045 0-.068.017-.068.053v3.442c0 .045.01.053.056.053h.714c.98 0 1.126-.473 1.126-1.81 0-1.292-.146-1.738-1.138-1.738zM-150.81 164.498c-.068 0-.113-.036-.113-.09v-5.885c0-.054.044-.09.112-.09h1.783c.067 0 .112.036.112.09v5.886c0 .052-.044.088-.112.088h-1.784zM-136.315 164.498h-2.576c-.08-.01-.113-.036-.135-.107-.134-.463-.524-2.416-.736-3.62-.012-.045-.045-.062-.1-.062-.057 0-.09.018-.1.062-.19 1.204-.558 3.175-.692 3.638-.033.08-.078.09-.178.09h-2.51c-.077-.01-.11-.037-.132-.108-.28-1.213-1.07-5.396-1.126-5.868 0-.054.044-.09.112-.09h1.93c.066 0 .11.036.11.09.09.936.413 3.443.547 4.173.012.072.045.09.146.09.09 0 .123-.02.134-.09.145-.713.513-2.997.67-3.995 0-.053.043-.09.11-.09h2.086c.067 0 .112.037.112.09.156 1 .558 3.264.714 3.995.022.072.056.09.145.09.1 0 .123-.02.145-.1.123-.73.435-3.245.524-4.164 0-.053.044-.088.112-.088h1.885c.067 0 .11.035.11.09-.055.516-.835 4.663-1.125 5.876-.027.082-.083.1-.183.1zM-128.455 159.807c0 .17.034.383.168.544.178.215.67.528 1.35.92.623.348 1.036.65 1.28.955.213.267.246.544.246.803 0 1.115-.804 1.534-2.086 1.534-.614 0-1.327-.063-1.873-.17-.044-.01-.055-.027-.055-.08l.044-.42c0-.026.033-.052.088-.043.602.097 1.138.15 1.75.15.804 0 1.328-.213 1.328-.926 0-.214-.01-.402-.156-.58-.18-.205-.624-.49-1.305-.883-.625-.347-1.148-.703-1.37-.998-.202-.268-.235-.536-.235-.776 0-1.124.837-1.436 2.164-1.436.58 0 1.204.07 1.505.152.043.01.055.027.055.08l-.045.4c0 .028-.033.063-.09.045-.3-.08-.947-.134-1.438-.134-.96 0-1.327.23-1.327.864z"/><path d="M-127.496 164.66c-.624 0-1.35-.064-1.893-.17-.136-.027-.136-.142-.136-.18l.045-.43c0-.07.073-.135.167-.135l.037.003c.65.105 1.167.15 1.735.15.86 0 1.226-.248 1.226-.828 0-.2-.01-.364-.134-.516-.188-.217-.75-.557-1.277-.86-.717-.398-1.19-.743-1.4-1.024-.227-.3-.256-.605-.256-.837 0-1.36 1.21-1.535 2.263-1.535.623 0 1.24.077 1.53.154.13.028.13.14.13.178l-.045.413c0 .086-.108.16-.22.128-.27-.07-.89-.13-1.407-.13-1.025 0-1.226.282-1.226.767 0 .14.025.337.144.48.19.227.807.598 1.323.895.647.36 1.063.67 1.31.98.237.296.27.603.27.864 0 1.085-.736 1.635-2.186 1.635zm-1.827-.362c.532.1 1.228.163 1.827.163 1.354 0 1.985-.455 1.985-1.434 0-.238-.028-.492-.225-.74-.23-.286-.63-.582-1.252-.93-.81-.468-1.21-.74-1.377-.94-.158-.19-.19-.437-.19-.61 0-.8.57-.964 1.426-.964.453 0 1.1.048 1.434.13l.037-.33c-.292-.073-.88-.145-1.46-.145-1.465 0-2.063.388-2.063 1.336 0 .213.025.465.214.717.193.255.656.59 1.34.972.787.454 1.16.707 1.33.904.168.205.182.413.182.645 0 .922-.814 1.028-1.427 1.028-.573 0-1.097-.044-1.747-.15l-.036.35zM-119.546 159.04c0-.035-.022-.053-.067-.053h-1.584c-.067 0-.112-.035-.112-.09v-.374c0-.054.046-.09.113-.09h4.115c.067 0 .112.036.112.09v.375c0 .053-.045.09-.112.09h-1.583c-.045 0-.067.017-.067.052v5.37c0 .052-.044.088-.11.088h-.592c-.067 0-.112-.036-.112-.09v-5.368z"/><path d="M-118.843 164.597h-.59c-.124 0-.212-.08-.212-.188v-5.322h-1.55c-.123 0-.212-.08-.212-.19v-.374c0-.11.09-.188.212-.188h4.115c.123 0 .21.08.21.188v.375c0 .108-.088.187-.21.187h-1.55v5.322c-.003.108-.09.187-.213.187zm-.77-5.71c.115 0 .167.076.167.152v5.368l.603-.01c.01 0 .018-.004.02-.004l-.01-5.355c0-.077.053-.153.168-.153h1.583l.01-.364-4.125.01-.012.365 1.597-.01zM-107.615 163.142c0 .892-.87 1.445-2.475 1.445-1.673 0-2.397-.553-2.397-1.445v-4.62c0-.053.044-.088.112-.088h.59c.068 0 .113.035.113.09v4.503c0 .82.68 1 1.583 1 .904 0 1.663-.18 1.663-1.01v-4.494c0-.054.044-.09.112-.09h.59c.068 0 .112.036.112.09v4.62z"/><path d="M-110.09 164.687c-2.065 0-2.498-.84-2.498-1.545v-4.62c0-.108.09-.187.212-.187h.59c.123 0 .212.08.212.188v4.504c0 .638.43.898 1.483.898 1.094 0 1.56-.27 1.56-.907v-4.495c0-.11.09-.188.212-.188h.59c.123 0 .212.08.212.188v4.62c0 .98-.938 1.544-2.575 1.544zm-1.684-6.164l-.602.01-.012 4.61c0 .892.773 1.345 2.297 1.345 1.51 0 2.374-.49 2.374-1.346v-4.62l-.602.012-.01 4.484c0 .992-1.007 1.106-1.763 1.106-.785 0-1.684-.124-1.684-1.098v-4.503zM-99.744 158.434c2.208 0 2.665 1.498 2.665 3.015 0 1.515-.49 3.05-2.664 3.05h-2.42c-.067 0-.112-.037-.112-.09v-5.886c0-.054.044-.09.112-.09h2.42zm-.122.517h-1.528c-.044 0-.067.02-.067.055v4.923c0 .044.01.053.055.053h1.55c1.54 0 1.94-1.158 1.94-2.558 0-1.365-.368-2.47-1.95-2.47z"/><path d="M-99.743 164.597h-2.42c-.123 0-.21-.08-.21-.188v-5.887c0-.11.088-.188.21-.188h2.42c1.86 0 2.765 1.02 2.765 3.114 0 2.088-.93 3.147-2.765 3.147zm-2.42-6.063l-.01 5.875 2.43-.012c1.726 0 2.565-.965 2.565-2.95 0-1.987-.815-2.914-2.565-2.914h-2.42zm2.308 5.546h-1.55c-.135 0-.156-.096-.156-.153v-4.923c0-.076.05-.153.166-.153h1.528c1.838 0 2.05 1.468 2.05 2.57 0 1.79-.666 2.66-2.04 2.66zm-1.506-.2h1.504c1.256 0 1.84-.78 1.84-2.46 0-1.64-.57-2.37-1.85-2.37h-1.496v4.83zM-91.827 164.498c-.067 0-.112-.036-.112-.09v-5.885c0-.054.045-.09.113-.09h.59c.068 0 .113.036.113.09v5.886c0 .052-.044.088-.112.088h-.59z"/><path d="M-91.236 164.597h-.59c-.124 0-.213-.08-.213-.188v-5.887c0-.11.09-.188.213-.188h.59c.124 0 .212.08.212.188v5.886c0 .108-.088.187-.21.187zm.01-6.074l-.6.01-.013 5.876.604-.012c.01 0 .018-.003.02-.004l-.01-5.87zM-81.212 164.052c-.446.446-1.026.535-2.04.535-1.027 0-1.573-.09-2.02-.535-.456-.464-.69-1.454-.69-2.586s.233-2.095.69-2.56c.447-.445 1.027-.56 2.042-.56 1.026 0 1.583.115 2.03.56.456.465.668 1.428.668 2.56 0 1.132-.223 2.122-.68 2.586zm-3.39-.294c.257.24.547.286 1.35.286.824 0 1.126-.045 1.382-.286.346-.32.513-1.275.513-2.283 0-1.017-.168-1.97-.513-2.292-.256-.24-.558-.285-1.36-.285-.825 0-1.115.044-1.372.285-.345.32-.524 1.275-.524 2.292 0 1.008.178 1.962.524 2.283z"/><path d="M-83.253 164.687c-1.01 0-1.61-.087-2.088-.564-.46-.465-.722-1.433-.722-2.656 0-1.207.263-2.165.72-2.63.496-.495 1.15-.592 2.113-.592.98 0 1.604.094 2.1.592.45.457.7 1.39.7 2.63 0 1.23-.26 2.2-.71 2.656-.48.477-1.087.564-2.113.564zm.023-6.243c-1.06 0-1.577.14-1.97.533-.42.427-.663 1.335-.663 2.49s.248 2.094.663 2.515c.43.43.97.506 1.946.506.97 0 1.542-.08 1.97-.506.414-.42.65-1.337.65-2.516 0-1.187-.226-2.07-.64-2.49-.396-.397-.89-.532-1.956-.532zm-.023 5.7c-.813 0-1.132-.046-1.417-.313-.41-.38-.556-1.467-.556-2.355 0-.895.146-1.985.556-2.365.284-.267.608-.312 1.44-.312.823 0 1.145.045 1.43.312.34.316.544 1.2.544 2.365 0 1.158-.204 2.04-.545 2.356-.287.268-.614.313-1.453.313zm.023-5.147c-.836 0-1.08.05-1.304.26-.3.276-.492 1.147-.492 2.218 0 1.064.193 1.932.492 2.21.222.208.473.26 1.28.26.836 0 1.095-.052 1.316-.26.292-.27.48-1.14.48-2.21 0-1.077-.188-1.948-.48-2.22-.22-.207-.474-.258-1.292-.258zM-136.597 152.35v-50.368h13.177v50.37h-13.177zM-172.497 101.982h13.177v50.37h-13.177zM-141.41 141.677V112.686l-13.18-10.704v50.37M-105.322 152.35v-50.368H-118.5v39.695M-69.506 141.677v-39.695h-13.176v50.37M-100.592 109.783h13.18v42.568h-13.18zM-135.628 50.37V0h13.177v50.37h-13.178zM-171.528 0h13.177v50.37h-13.178zM-140.44 39.695V10.704L-153.62 0v50.37M-104.353 50.37V0h-13.177v39.695M-68.536 39.695V0h-13.177v50.37M-99.623 7.8h13.18v42.57h-13.18zM-157.147 57.712h-.69c-.045 0-.067.017-.067.053v3.438c0 .044.01.053.055.053h.714c.98 0 1.126-.472 1.126-1.808 0-1.29-.146-1.736-1.137-1.736m.256-1.247c2.416 0 2.972 1.415 2.972 3.028s-.556 3.028-2.973 3.028h-2.896c-.067 0-.11-.035-.11-.088v-5.878c0-.052.044-.088.11-.088h2.895zM-149.716 62.52c-.067 0-.11-.035-.11-.088v-5.878c0-.052.044-.088.11-.088h1.782c.066 0 .11.036.11.088v5.878c0 .053-.044.09-.11.09h-1.782zM-135.464 62.52h-2.573c-.078-.01-.11-.035-.134-.106-.134-.463-.524-2.414-.735-3.615-.012-.047-.045-.064-.1-.064-.056 0-.09.017-.1.063-.19 1.2-.557 3.17-.69 3.63-.035.08-.08.09-.18.09h-2.504c-.078-.01-.11-.036-.133-.107-.278-1.21-1.07-5.388-1.125-5.86 0-.052.045-.088.11-.088h1.927c.066 0 .11.036.11.088.09.936.412 3.44.545 4.168.012.073.045.09.145.09.09 0 .122-.017.133-.09.145-.71.513-2.99.67-3.988 0-.053.044-.088.11-.088h2.08c.068 0 .112.035.112.088.156.998.557 3.26.714 3.99.02.07.054.088.142.088.1 0 .123-.017.145-.097.122-.73.434-3.242.523-4.16 0-.052.045-.088.11-.088h1.883c.067 0 .11.036.11.088-.054.517-.834 4.658-1.123 5.87-.018.08-.074.098-.174.098"/><g><path d="M-126.602 59.222c-.52-.298-1.138-.67-1.332-.902-.124-.15-.15-.353-.15-.497 0-.502.205-.792 1.254-.792.52 0 1.144.06 1.417.13.103.035.19-.044.188-.106l.045-.41c0-.06-.013-.134-.11-.152-.292-.077-.91-.155-1.528-.155-1.043 0-2.242.172-2.242 1.514 0 .23.03.53.25.823.21.28.68.623 1.395 1.02.528.305 1.094.646 1.286.868.13.158.14.328.14.533 0 .6-.375.854-1.253.854-.572 0-1.093-.045-1.742-.15-.114-.022-.176.053-.175.11l-.045.428c0 .036 0 .13.117.153.542.106 1.267.172 1.89.172 1.436 0 2.164-.542 2.164-1.61 0-.257-.03-.56-.263-.85-.248-.31-.662-.62-1.305-.978zM-116.77 56.373h-4.12c-.11 0-.187.067-.187.164v.375c0 .095.08.164.187.164h1.578v5.355c0 .096.08.165.187.165h.592c.108 0 .187-.07.187-.164v-5.354h1.578c.108 0 .187-.07.187-.164v-.375c-.002-.097-.08-.164-.19-.164zM-107.4 56.372h-.592c-.11 0-.188.068-.188.165v4.5c0 .647-.49.935-1.588.935-1.073 0-1.51-.268-1.51-.925v-4.51c0-.097-.078-.165-.188-.165h-.59c-.11 0-.188.068-.188.165v4.626c0 .694.43 1.522 2.476 1.522 1.623 0 2.554-.555 2.554-1.522v-4.626c0-.097-.077-.165-.187-.165zM-99.406 56.372h-2.422c-.11 0-.188.07-.188.165v5.894c0 .097.08.166.188.166h2.422c1.82 0 2.744-1.053 2.744-3.13 0-2.082-.898-3.094-2.744-3.094zm-1.645.668h1.52c1.3 0 1.88.74 1.88 2.4 0 1.696-.594 2.486-1.87 2.486h-1.532V57.04zM-90.886 56.373h-.59c-.11 0-.188.067-.188.164v5.895c0 .095.08.164.187.164h.59c.11 0 .188-.07.188-.164v-5.895c0-.097-.077-.164-.186-.164zM-80.783 56.87c-.492-.493-1.113-.587-2.085-.587-.958 0-1.608.096-2.098.586-.454.46-.714 1.412-.714 2.613 0 1.22.26 2.183.714 2.644.475.475 1.048.56 2.075.56 1.02 0 1.623-.088 2.096-.56.447-.454.704-1.418.704-2.644 0-1.233-.247-2.162-.693-2.614zm-.285 2.623c0 1.078-.192 1.954-.49 2.23-.228.215-.49.267-1.334.267-.817 0-1.073-.052-1.3-.266-.304-.284-.5-1.16-.5-2.23 0-1.08.196-1.96.5-2.242.23-.216.477-.265 1.323-.265.828 0 1.085.052 1.312.265.3.276.49 1.156.49 2.24z"/></g><path fill="#FFF" d="M13.068 158.434c2.42 0 2.978 1.418 2.978 3.032s-.558 3.032-2.978 3.032h-2.9c-.066 0-.11-.036-.11-.09v-5.885c0-.054.044-.09.11-.09h2.9zm-.257 1.248h-.69c-.044 0-.067.017-.067.053v3.442c0 .045.01.053.056.053h.713c.98 0 1.126-.473 1.126-1.81 0-1.292-.146-1.738-1.14-1.738zM20.717 164.498c-.067 0-.112-.036-.112-.09v-5.885c0-.054.044-.09.112-.09H22.5c.068 0 .113.036.113.09v5.886c0 .052-.045.088-.112.088h-1.783zM35.213 164.498h-2.576c-.078-.01-.112-.036-.134-.107-.134-.463-.524-2.416-.736-3.62-.01-.045-.045-.062-.1-.062-.056 0-.09.018-.1.062-.19 1.204-.558 3.175-.69 3.638-.034.08-.08.09-.18.09H28.19c-.08-.01-.112-.037-.135-.108-.28-1.213-1.07-5.396-1.126-5.868 0-.054.043-.09.11-.09h1.93c.067 0 .112.036.112.09.09.936.413 3.443.546 4.173.01.072.044.09.145.09.09 0 .123-.02.134-.09.145-.713.513-2.997.67-3.995 0-.053.043-.09.11-.09h2.086c.067 0 .112.037.112.09.156 1 .557 3.264.714 3.995.02.072.055.09.144.09.1 0 .123-.02.145-.1.122-.73.434-3.245.523-4.164 0-.053.044-.088.112-.088h1.885c.067 0 .11.035.11.09-.055.516-.835 4.663-1.125 5.876-.026.082-.082.1-.182.1z"/><g fill="#FFF"><path d="M43.073 159.807c0 .17.034.383.168.544.18.215.67.528 1.35.92.624.348 1.037.65 1.282.955.212.267.246.544.246.803 0 1.115-.803 1.534-2.085 1.534-.614 0-1.327-.063-1.873-.17-.045-.01-.056-.027-.056-.08l.044-.42c0-.026.034-.052.09-.043.6.097 1.137.15 1.75.15.803 0 1.327-.213 1.327-.926 0-.214-.01-.402-.156-.58-.18-.205-.625-.49-1.306-.883-.625-.347-1.148-.703-1.37-.998-.202-.268-.236-.536-.236-.776 0-1.124.837-1.436 2.164-1.436.58 0 1.204.07 1.505.152.044.01.056.027.056.08l-.045.4c0 .028-.033.063-.09.045-.3-.08-.947-.134-1.438-.134-.96 0-1.327.23-1.327.864z"/><path d="M44.032 164.66c-.624 0-1.35-.064-1.893-.17-.138-.027-.138-.142-.138-.18l.045-.43c0-.07.074-.135.168-.135l.037.003c.65.105 1.167.15 1.735.15.86 0 1.227-.248 1.227-.828 0-.2-.01-.364-.134-.516-.188-.217-.75-.557-1.277-.86-.717-.398-1.19-.743-1.4-1.024-.227-.3-.256-.605-.256-.837 0-1.36 1.21-1.535 2.264-1.535.624 0 1.242.077 1.532.154.13.028.13.14.13.178l-.046.413c0 .086-.108.16-.22.128-.27-.07-.89-.13-1.407-.13-1.027 0-1.228.282-1.228.767 0 .14.025.337.144.48.19.227.807.598 1.323.895.645.36 1.06.67 1.31.98.235.296.267.603.267.864 0 1.085-.735 1.635-2.185 1.635zm-1.827-.362c.532.1 1.228.163 1.827.163 1.354 0 1.985-.455 1.985-1.434 0-.238-.027-.492-.224-.74-.23-.286-.63-.582-1.252-.93-.81-.468-1.21-.74-1.376-.94-.158-.19-.19-.437-.19-.61 0-.8.57-.964 1.426-.964.453 0 1.1.048 1.434.13l.037-.33c-.29-.073-.88-.145-1.458-.145-1.466 0-2.064.388-2.064 1.336 0 .213.025.465.214.717.193.255.656.59 1.34.972.787.454 1.16.707 1.33.904.168.205.182.413.182.645 0 .922-.814 1.028-1.427 1.028-.572 0-1.096-.044-1.746-.15l-.035.35z"/></g><g fill="#FFF"><path d="M51.98 159.04c0-.035-.02-.053-.066-.053H50.33c-.067 0-.112-.035-.112-.09v-.374c0-.054.044-.09.112-.09h4.115c.067 0 .112.036.112.09v.375c0 .053-.045.09-.112.09h-1.583c-.044 0-.067.017-.067.052v5.37c0 .052-.044.088-.11.088h-.592c-.067 0-.112-.036-.112-.09v-5.368z"/><path d="M52.684 164.597h-.59c-.124 0-.212-.08-.212-.188v-5.322h-1.55c-.123 0-.212-.08-.212-.19v-.374c0-.11.09-.188.212-.188h4.115c.123 0 .21.08.21.188v.375c0 .108-.088.187-.21.187h-1.55v5.322c-.002.108-.09.187-.213.187zm-.77-5.71c.116 0 .168.076.168.152v5.368l.603-.01c.01 0 .018-.004.02-.004l-.01-5.355c0-.077.053-.153.168-.153h1.583l.01-.364-4.125.01-.01.365 1.595-.01z"/></g><g fill="#FFF"><path d="M63.912 163.142c0 .892-.87 1.445-2.475 1.445-1.673 0-2.397-.553-2.397-1.445v-4.62c0-.053.044-.088.112-.088h.59c.068 0 .113.035.113.09v4.503c0 .82.68 1 1.583 1 .903 0 1.662-.18 1.662-1.01v-4.494c0-.054.044-.09.112-.09h.59c.068 0 .112.036.112.09v4.62z"/><path d="M61.437 164.687c-2.064 0-2.497-.84-2.497-1.545v-4.62c0-.108.09-.187.212-.187h.59c.123 0 .212.08.212.188v4.504c0 .638.43.898 1.483.898 1.095 0 1.562-.27 1.562-.907v-4.495c0-.11.088-.188.21-.188h.59c.123 0 .212.08.212.188v4.62c0 .98-.94 1.544-2.575 1.544zm-1.683-6.164l-.602.01-.012 4.61c0 .892.773 1.345 2.297 1.345 1.51 0 2.375-.49 2.375-1.346v-4.62l-.602.012-.01 4.484c0 .992-1.007 1.106-1.763 1.106-.784 0-1.683-.124-1.683-1.098v-4.503z"/></g><g fill="#FFF"><path d="M71.784 158.434c2.208 0 2.665 1.498 2.665 3.015 0 1.515-.49 3.05-2.666 3.05h-2.42c-.067 0-.112-.037-.112-.09v-5.886c0-.054.044-.09.112-.09h2.42zm-.122.517h-1.528c-.044 0-.067.02-.067.055v4.923c0 .044.01.053.056.053h1.55c1.54 0 1.94-1.158 1.94-2.558 0-1.365-.368-2.47-1.95-2.47z"/><path d="M71.784 164.597h-2.42c-.123 0-.21-.08-.21-.188v-5.887c0-.11.088-.188.21-.188h2.42c1.86 0 2.765 1.02 2.765 3.114 0 2.088-.93 3.147-2.766 3.147zm-2.42-6.063l-.01 5.875 2.43-.012c1.726 0 2.565-.965 2.565-2.95 0-1.987-.816-2.914-2.566-2.914h-2.42zm2.31 5.546h-1.55c-.136 0-.157-.096-.157-.153v-4.923c0-.076.052-.153.167-.153h1.528c1.838 0 2.05 1.468 2.05 2.57 0 1.79-.666 2.66-2.04 2.66zm-1.507-.2h1.505c1.256 0 1.84-.78 1.84-2.46 0-1.64-.57-2.37-1.85-2.37h-1.496v4.83z"/></g><g fill="#FFF"><path d="M79.7 164.498c-.066 0-.11-.036-.11-.09v-5.885c0-.054.043-.09.11-.09h.592c.067 0 .112.036.112.09v5.886c0 .052-.044.088-.112.088h-.59z"/><path d="M80.292 164.597h-.59c-.124 0-.213-.08-.213-.188v-5.887c0-.11.088-.188.21-.188h.592c.123 0 .21.08.21.188v5.886c0 .108-.088.187-.21.187zm.01-6.074l-.6.01-.013 5.876.602-.012c.01 0 .018-.003.02-.004l-.01-5.87z"/></g><g fill="#FFF"><path d="M90.316 164.052c-.446.446-1.026.535-2.04.535-1.027 0-1.573-.09-2.02-.535-.456-.464-.69-1.454-.69-2.586s.233-2.095.69-2.56c.447-.445 1.027-.56 2.042-.56 1.026 0 1.583.115 2.03.56.456.465.668 1.428.668 2.56 0 1.132-.223 2.122-.68 2.586zm-3.39-.294c.257.24.547.286 1.35.286.824 0 1.126-.045 1.382-.286.346-.32.513-1.275.513-2.283 0-1.017-.167-1.97-.512-2.292-.256-.24-.558-.285-1.36-.285-.825 0-1.115.044-1.372.285-.345.32-.524 1.275-.524 2.292 0 1.008.178 1.962.524 2.283z"/><path d="M88.275 164.687c-1.01 0-1.61-.087-2.088-.564-.458-.465-.72-1.433-.72-2.656 0-1.207.262-2.165.72-2.63.495-.495 1.15-.592 2.112-.592.978 0 1.602.094 2.1.592.45.457.697 1.39.697 2.63 0 1.23-.258 2.2-.71 2.656-.478.477-1.086.564-2.112.564zm.023-6.243c-1.06 0-1.577.14-1.97.533-.42.427-.663 1.335-.663 2.49s.248 2.094.663 2.515c.43.43.97.506 1.946.506.97 0 1.542-.08 1.97-.506.414-.42.65-1.337.65-2.516 0-1.187-.226-2.07-.64-2.49-.396-.397-.89-.532-1.956-.532zm-.023 5.7c-.813 0-1.132-.046-1.417-.313-.41-.38-.556-1.467-.556-2.355 0-.895.146-1.985.556-2.365.284-.267.608-.312 1.44-.312.823 0 1.145.045 1.43.312.34.316.544 1.2.544 2.365 0 1.158-.204 2.04-.545 2.356-.286.268-.613.313-1.452.313zm.023-5.147c-.836 0-1.08.05-1.304.26-.3.276-.492 1.147-.492 2.218 0 1.064.193 1.932.492 2.21.222.208.473.26 1.28.26.836 0 1.095-.052 1.316-.26.292-.27.48-1.14.48-2.21 0-1.077-.188-1.948-.48-2.22-.22-.207-.475-.258-1.292-.258z"/></g><g fill="#FFF"><path d="M34.93 152.35v-50.368h13.177v50.37H34.93zM-.97 101.982H12.21v50.37H-.97zM30.117 141.677V112.686l-13.18-10.704v50.37M66.206 152.35v-50.368H53.03v39.695M102.022 141.677v-39.695H88.846v50.37M70.935 109.783h13.18v42.568h-13.18z"/></g><g fill="#FFF"><path d="M35.9 50.37V0h13.177v50.37H35.9zM0 0h13.177v50.37H0zM31.087 39.695V10.704L17.907 0v50.37M67.175 50.37V0H53.998v39.695M102.992 39.695V0H89.815v50.37M71.905 7.8h13.18v42.57h-13.18z"/></g></svg>